<?xml version="1.0" encoding="UTF-8" standalone="no"?>
<svg
   xmlns:dc="http://purl.org/dc/elements/1.1/"
   xmlns:cc="http://creativecommons.org/ns#"
   xmlns:rdf="http://www.w3.org/1999/02/22-rdf-syntax-ns#"
   xmlns:svg="http://www.w3.org/2000/svg"
   xmlns="http://www.w3.org/2000/svg"
   viewBox="0 0 566.93335 377.94666"
   height="377.94666"
   width="566.93335"
   xml:space="preserve"
   id="svg2"
   version="1.1"><metadata
     id="metadata8"><rdf:RDF><cc:Work
         rdf:about=""><dc:format>image/svg+xml</dc:format><dc:type
           rdf:resource="http://purl.org/dc/dcmitype/StillImage" /></cc:Work></rdf:RDF></metadata><defs
     id="defs6"><clipPath
       id="clipPath18"
       clipPathUnits="userSpaceOnUse"><path
         id="path16"
         d="M 0,283.46 H 425.2 V 0 H 0 Z" /></clipPath><linearGradient
       id="linearGradient58"
       spreadMethod="pad"
       gradientTransform="matrix(24.333334,-15.875,-15.875,-24.333334,175.02962,225.56783)"
       gradientUnits="userSpaceOnUse"
       y2="0"
       x2="1"
       y1="0"
       x1="0"><stop
         id="stop48"
         offset="0"
         style="stop-opacity:1;stop-color:#000" /><stop
         id="stop50"
         offset="0"
         style="stop-opacity:1;stop-color:#000" /><stop
         id="stop52"
         offset="0"
         style="stop-opacity:1;stop-color:#000" /><stop
         id="stop54"
         offset="0.29464888"
         style="stop-opacity:1;stop-color:#000" /><stop
         id="stop56"
         offset="1"
         style="stop-opacity:1;stop-color:#000" /></linearGradient><linearGradient
       id="linearGradient84"
       spreadMethod="pad"
       gradientTransform="matrix(-25.756571,-16.803516,16.803516,-25.756571,251.32436,226.11467)"
       gradientUnits="userSpaceOnUse"
       y2="0"
       x2="1"
       y1="0"
       x1="0"><stop
         id="stop74"
         offset="0"
         style="stop-opacity:1;stop-color:#000" /><stop
         id="stop76"
         offset="0"
         style="stop-opacity:1;stop-color:#000" /><stop
         id="stop78"
         offset="0"
         style="stop-opacity:1;stop-color:#000" /><stop
         id="stop80"
         offset="0.29464888"
         style="stop-opacity:1;stop-color:#000" /><stop
         id="stop82"
         offset="1"
         style="stop-opacity:1;stop-color:#000" /></linearGradient></defs><g
     transform="matrix(1.3333333,0,0,-1.3333333,0,377.94667)"
     id="g10"><g
       id="g12"><g
         clip-path="url(#clipPath18)"
         id="g14"><g
           transform="translate(202.4452,227.3785)"
           id="g20"><path
             id="path22"
             style="fill:#000;fill-opacity:1;fill-rule:nonzero;stroke:none"
             d="M 0,0 C 0.032,5.73 4.829,10.54 10.559,10.597 16.385,10.649 21.336,5.71 21.298,-0.116 21.266,-5.839 16.462,-10.655 10.732,-10.7 4.9,-10.758 -0.032,-5.832 0,0" /></g><g
           transform="translate(272.3061,159.2668)"
           id="g24"><path
             id="path26"
             style="fill:#000;fill-opacity:1;fill-rule:nonzero;stroke:none"
             d="m 0,0 c -7.8,-1.46 -10.302,-4.675 -10.289,-12.565 0.007,-2.81 0.058,-5.62 0.135,-8.431 0.225,-8.031 0.656,-16.056 0.669,-24.088 0.013,-7.382 -4.218,-12.797 -11.234,-14.777 -2.862,-0.804 -5.833,-1.241 -8.778,-1.679 -0.096,-0.013 -0.212,0 -0.34,0.039 v 4.771 c 0.282,0.116 0.61,0.212 0.996,0.283 7.151,1.351 10.366,5.273 10.27,12.565 -0.065,5.215 -0.72,10.424 -0.946,15.646 -0.25,5.987 -0.771,12.012 -0.347,17.96 0.399,5.607 3.813,9.582 9.177,11.678 0.778,0.302 1.485,0.791 2.565,1.37 -9.305,3.851 -12.378,8.121 -12.102,17.568 0.232,8.018 1.08,16.024 1.614,24.043 0.315,4.778 0.322,9.485 -2.675,13.652 -2.585,3.588 -5.91,3.807 -8.514,0.219 -1.704,-2.341 -3.376,-4.778 -4.585,-7.395 -7.221,-15.633 -14.327,-31.323 -21.4,-47.026 -0.836,-1.859 -1.454,-3.196 -4.02,-3.158 -2.482,0.039 -3.003,1.408 -3.749,3.145 -5.073,11.723 -10.005,23.516 -15.394,35.091 -3.055,6.565 -6.688,12.887 -10.443,19.086 -2.45,4.051 -6.501,3.922 -8.681,-0.245 -1.434,-2.726 -2.682,-5.98 -2.643,-8.977 0.103,-7.633 1.009,-15.253 1.504,-22.886 0.174,-2.701 0.213,-5.427 0.078,-8.128 -0.393,-7.659 -4.444,-12.533 -12.083,-14.835 0.759,-0.572 1.151,-1.035 1.639,-1.203 7.769,-2.655 10.739,-8.507 10.444,-16.217 -0.232,-6.051 -0.528,-12.109 -1.029,-18.141 -0.161,-1.877 -0.335,-3.749 -0.54,-5.62 -0.573,-5.254 -0.457,-8.765 0.926,-11.433 1.549,-2.997 4.694,-4.939 10.243,-7.119 0.071,-0.026 0.142,-0.071 0.213,-0.129 v -4.694 c -0.013,0 -0.026,0 -0.039,0.007 v -0.405 c -0.129,-0.039 -0.244,-0.052 -0.341,-0.039 -2.945,0.437 -5.916,0.874 -8.778,1.678 -6.411,1.814 -10.5,6.495 -11.144,12.932 -0.199,1.235 -0.289,2.553 -0.27,3.948 0.129,10.167 0.663,20.327 0.836,30.487 0.142,8.521 -2.347,11.453 -10.668,13.189 -3.363,0.701 -3.498,0.945 -2.476,4.579 0.444,0.058 0.92,0.122 1.389,0.186 8.502,1.164 11.897,4.932 11.755,13.524 -0.167,9.774 -0.701,19.542 -0.836,29.323 -0.154,10.841 5.209,16.854 15.948,18.526 5.704,0.887 10.379,-0.187 13.221,-5.781 4.418,-8.714 9.009,-17.337 13.311,-26.108 2.701,-5.517 4.997,-11.234 7.704,-17.388 0.662,1.363 1.093,2.193 1.466,3.048 2.701,6.109 5.138,12.347 8.135,18.301 4.122,8.199 8.552,16.256 13.124,24.217 0.913,1.589 2.9,3.081 4.675,3.556 11.858,3.151 22.983,-5.395 22.848,-17.529 -0.032,-2.662 -0.084,-5.318 -0.148,-7.98 -0.039,-1.331 -0.071,-2.663 -0.109,-3.994 -0.116,-3.993 -0.251,-7.98 -0.361,-11.973 -0.077,-2.662 -0.141,-5.325 -0.186,-7.987 -0.103,-5.916 2.656,-9.388 8.366,-10.99 C -0.244,5.228 1.447,4.919 3.003,4.559 3.993,1.556 2.797,0.527 0,0" /></g><g
           transform="translate(172.5306,109.5784)"
           id="g28"><path
             id="path30"
             style="fill:#000;fill-opacity:1;fill-rule:nonzero;stroke:none"
             d="m 0,0 c -1.383,2.669 -1.498,6.18 -0.926,11.433 0.206,1.872 0.379,3.743 0.54,5.621 C -0.662,13.408 -0.971,8.739 -0.849,5.279 -0.778,3.273 -0.508,1.518 0,0" /></g></g></g>
<g
       id="g36"><g
         id="g38"><g
           id="g44"><g
             id="g46"><path
               id="path60"
               style="fill:url(#linearGradient58);stroke:none"
               d="m 178.358,225.606 -3.2,-7.161 c 0.6,0.35 2.95,2.001 5.141,1.16 v 0 c 1.89,-0.739 2.819,-2.639 4.359,-5.21 v 0 l 0.94,-1.63 c 0,0 0.95,-2.929 5.58,-1.17 v 0 c 4.621,1.741 3.251,2.35 3.251,2.35 v 0 c 0.309,0.131 -0.931,1.42 -1.931,4.091 v 0 c -2.547,6.746 -7.562,7.976 -10.883,7.976 v 0 c -1.908,0 -3.257,-0.406 -3.257,-0.406" /></g></g></g></g><g
       id="g62"><g
         id="g64"><g
           id="g70"><g
             id="g72"><path
               id="path86"
               style="fill:url(#linearGradient84);stroke:none"
               d="m 233.188,217.924 c -0.935,-2.742 -2.664,-4.432 -2.353,-4.563 v 0 c 0,0 -1.249,-0.025 3.372,-1.766 v 0 c 2.371,-0.9 3.387,-1.302 4.031,-0.562 v 0 c 0.629,0.722 1.158,1.724 1.158,1.724 v 0 l 1.058,1.772 c 1.54,2.569 2.743,4.337 4.633,5.076 v 0 c 2.19,0.841 4.54,-0.81 5.14,-1.16 v 0 l -2.226,7.403 c 0,0 -1.324,0.335 -3.208,0.335 v 0 c -3.586,0.001 -9.202,-1.213 -11.605,-8.259" /></g></g></g></g></g></svg>